# xmcd
#
# Track frame offsets:
#	150
#	14225
#	27470
#	46345
#	65069
#	79769
#	100394
#	113840
#	128218
#	146523
#	166879
#	177198
#	190943
#	204826
#	221193
#	236740
#	246499
#	261646
#	281361
#	299410
#	316448
#
# Disc length: 4381 seconds
#
# Revision: 1
# Processed by: cddbd v1.5PL3 Copyright (c) Steve Scherf et al.
# Submitted via: audiograbber 1.83.01
#
DISCID=4e111b15
DTITLE=Various Artist - The Watermelon Sampler Vol. 1
DYEAR=1995
DGENRE=Other
TTITLE0=Webb Wilder - Stay Out Of Automobiles
TTITLE1=Timbuk3 - Dirty, Dirty Rice
TTITLE2=Alejandro Escovedo - Five Hearts Breaking
TTITLE3=Steve Young - Silverlake
TTITLE4=Tish Hinojosa - Manos, Huesos y Sangre
TTITLE5=Darden Smith - Clatter and Roll
TTITLE6=Katy Moffatt - Ruin This Romance
TTITLE7=Vince Bell - The Girl Who Never Saw a Mountain
TTITLE8=Hamilton Pool - Eye on the Road
TTITLE9=Iain Matthews - Rain of '62
TTITLE10=Maryann Price - What About the Sugar?
TTITLE11=Don Walser - Cowpoke
TTITLE12=Austin Lounge Lizards - Half a Man
TTITLE13=Threadgill's Supper Session - Brown's Ferry Blues
TTITLE14=Monte Warden - Here I Am
TTITLE15=Santiago Jimenez, Jr. - Marina, Marina
TTITLE16=The Setters - Shaking All Over the Place
TTITLE17=The Silos - Miles Away
TTITLE18=Omar and the Howlers - Muddy Springs Road
TTITLE19=Carla Olson - Ups and Down
TTITLE20=Julian Dawson - Where Are All the Lonely Girls?
EXTD=
EXTT0=
EXTT1=
EXTT2=
EXTT3=
EXTT4=
EXTT5=
EXTT6=
EXTT7=
EXTT8=
EXTT9=
EXTT10=
EXTT11=
EXTT12=
EXTT13=
EXTT14=
EXTT15=
EXTT16=
EXTT17=
EXTT18=
EXTT19=
EXTT20=
PLAYORDER=
